<svg width="1201" height="100" viewBox="0 0 1201 100" fill="none" xmlns="http://www.w3.org/2000/svg">
<path d="M88.693 55.3741H83.573V41.6861H88.693V55.3741ZM84.073 54.8741H88.193V42.1861H84.073V54.8741ZM95.817 55.3741H90.8V41.6861H101.282C102.784 41.5645 104.279 41.9861 105.496 42.8741C106.02 43.3534 106.426 43.9473 106.683 44.6094C106.939 45.2715 107.039 45.9839 106.975 46.6911C107.05 47.9131 106.661 49.1183 105.886 50.0661C104.969 51.1181 103.443 51.6601 101.351 51.6791C100.824 51.6931 96.875 51.6791 95.82 51.6791L95.817 55.3741ZM91.297 54.8741H95.317V51.1741H95.568C95.619 51.1741 100.746 51.1901 101.339 51.1741C103.288 51.1571 104.689 50.6741 105.508 49.7311C106.198 48.8736 106.54 47.7883 106.468 46.6901C106.529 46.0565 106.444 45.4172 106.219 44.8219C105.993 44.2265 105.634 43.6911 105.168 43.2571C104.04 42.4472 102.659 42.067 101.275 42.1851H91.3L91.297 54.8741ZM100.22 48.6041H95.283V44.8781H100.253C100.605 44.8294 100.964 44.8705 101.296 44.9976C101.629 45.1247 101.923 45.3337 102.153 45.6051C102.362 45.9521 102.46 46.3541 102.435 46.7581C102.454 47.1332 102.373 47.5066 102.2 47.8401C101.963 48.126 101.656 48.3461 101.309 48.4792C100.963 48.6123 100.588 48.6539 100.22 48.6001V48.6041ZM95.783 48.1041H100.22C101.04 48.1041 101.548 47.9331 101.773 47.5811C101.897 47.3253 101.953 47.0419 101.936 46.7581C101.958 46.4602 101.893 46.1623 101.75 45.9001L101.744 45.8911C101.506 45.5411 101.033 45.3781 100.253 45.3781H95.783V48.1041ZM116.1 55.5761C111.61 55.5761 108.93 54.4611 107.909 52.1681C107.742 51.7252 107.628 51.2639 107.571 50.7941L107.527 50.5061H112.869L112.904 50.7161C112.945 50.9294 113.036 51.13 113.168 51.3021C113.379 51.5571 114.083 51.9851 116.419 51.9851C119.227 51.9851 119.227 51.4921 119.227 51.2271C119.227 50.7801 118.902 50.6271 116.612 50.3831L116.177 50.3421C115.315 50.2611 114.225 50.1581 113.727 50.1151C109.527 49.7351 107.652 48.4301 107.652 45.8851C107.652 43.2121 110.843 41.4851 115.782 41.4851C119.811 41.4851 122.407 42.5471 123.496 44.6441C123.754 45.1319 123.928 45.6601 124.009 46.2061L124.044 46.4871H118.696L118.674 46.2611C118.653 46.0845 118.578 45.9188 118.458 45.7871C118.258 45.5191 117.626 45.0761 115.664 45.0761C113.255 45.0761 112.923 45.3841 112.923 45.7161C112.923 46.1591 113.684 46.3161 116.123 46.5771C117.14 46.6601 118.775 46.8281 119.335 46.8961C122.856 47.2781 124.427 48.5511 124.427 51.0251C124.428 53.1001 122.983 55.5761 116.1 55.5761ZM108.111 51.0061C108.161 51.3359 108.247 51.6592 108.368 51.9701C109.298 54.0591 111.828 55.0761 116.1 55.0761C119.672 55.0761 123.931 54.3761 123.931 51.0251C123.931 48.8321 122.541 47.7461 119.282 47.3931C118.722 47.3251 117.097 47.1581 116.082 47.0741C113.482 46.7921 112.425 46.6421 112.425 45.7161C112.425 44.7581 113.564 44.5761 115.666 44.5761C117.327 44.5761 118.4 44.8761 118.855 45.4811C118.979 45.6302 119.073 45.8021 119.131 45.9871H123.465C123.378 45.6004 123.24 45.2268 123.055 44.8761C122.055 42.9571 119.612 41.9851 115.784 41.9851C111.149 41.9851 108.154 43.5161 108.154 45.8851C108.154 48.1451 109.835 49.2611 113.773 49.6171C114.273 49.6601 115.362 49.7631 116.226 49.8451L116.664 49.8861C118.791 50.1101 119.729 50.2501 119.729 51.2271C119.729 52.2791 118.516 52.4851 116.421 52.4851C114.483 52.4851 113.259 52.1941 112.786 51.6211C112.64 51.4384 112.53 51.2297 112.462 51.0061H108.111ZM133.927 55.5591C128.707 55.5591 125.827 53.4481 125.827 49.6141V41.6861H130.879V49.6141C130.879 50.9291 132.056 51.6831 134.107 51.6831C136.067 51.6831 137.284 50.8961 137.284 49.6311V41.6861H142.284V50.0341C142.289 53.5451 139.24 55.5591 133.924 55.5591H133.927ZM126.327 42.1861V49.6141C126.327 54.3521 131.085 55.0591 133.927 55.0591C136.865 55.0591 141.792 54.4061 141.792 50.0341V42.1861H137.792V49.6311C137.792 51.1811 136.348 52.1831 134.115 52.1831C131.781 52.1831 130.387 51.2231 130.387 49.6141V42.1861H126.327ZM163.472 55.3741H158.704V49.1941L156 55.3741H151.841L149.165 49.2061V55.3741H144.38V41.6861H150.674L153.944 49.2331L157.372 41.6861H163.478L163.472 55.3741ZM159.204 54.8741H162.972V42.1861H157.69L153.928 50.4651L150.342 42.1861H144.876V54.8741H148.661V46.8001L152.161 54.8771H155.661L159.198 46.8121L159.204 54.8741ZM19.054 41.9361H14.5V55.1241H27.084V51.6131H19.054V41.9361ZM36.276 41.6361C30.463 41.6361 27.406 44.3911 27.406 48.4361C27.406 53.0061 30.615 55.3241 36.276 55.3241C42.508 55.3241 45.129 52.6361 45.129 48.4361C45.129 44.1711 42.172 41.6341 36.276 41.6341V41.6361ZM36.259 45.0631C36.6547 45.0613 37.0502 45.0843 37.443 45.1321L32.352 50.2231C32.1111 49.6782 31.9936 49.0867 32.008 48.4911C32.008 46.4221 33.05 45.0611 36.259 45.0611V45.0631ZM36.276 51.9511C35.8947 51.9528 35.5137 51.9314 35.135 51.8871L40.235 46.7871C40.4669 47.323 40.5779 47.9034 40.56 48.4871C40.56 50.5001 39.6 51.9491 36.276 51.9491V51.9511ZM54.152 50.1511H58.839C58.77 50.4764 58.6262 50.7811 58.419 51.0411C57.4473 51.8327 56.2072 52.2179 54.958 52.1161C54.3292 52.1834 53.6934 52.1147 53.0935 51.9147C52.4935 51.7148 51.9436 51.3882 51.481 50.9571C51.0071 50.262 50.782 49.4272 50.842 48.5881C50.7653 47.7089 51.0101 46.8316 51.531 46.1191C52.186 45.3791 53.295 45.0601 54.925 45.0601C55.9621 44.9742 56.9979 45.2406 57.865 45.8161C58.1383 46.0332 58.3426 46.325 58.453 46.6561H62.8C62.7684 46.1106 62.6372 45.5754 62.413 45.0771C61.372 42.9601 58.952 41.7001 54.837 41.7001C51.258 41.7001 48.856 42.7921 47.529 44.4391C46.6526 45.6285 46.2027 47.0785 46.252 48.5551C46.1953 50.0651 46.6335 51.5522 47.5 52.7901C48.811 54.4901 51.146 55.3261 53.952 55.3261C55.8175 55.4562 57.6703 54.9337 59.193 53.8481L59.311 55.1241H62.922V47.3121H54.152V50.1511ZM73.171 41.6331C67.359 41.6331 64.301 44.3881 64.301 48.4331C64.301 53.0031 67.509 55.3211 73.171 55.3211C79.404 55.3211 82.025 52.6331 82.025 48.4331C82.025 44.1711 79.068 41.6341 73.171 41.6341V41.6331ZM73.155 45.0601C73.5403 45.059 73.9253 45.081 74.308 45.1261L69.237 50.2001C69.0036 49.6613 68.89 49.0782 68.904 48.4911C68.9 46.4221 69.946 45.0611 73.155 45.0611V45.0601ZM73.171 51.9481C72.7796 51.9498 72.3885 51.9271 72 51.8801L77.117 46.7621C77.3577 47.3051 77.4729 47.8954 77.454 48.4891C77.456 50.5001 76.5 51.9491 73.171 51.9491V51.9481Z" fill="#080829"/>
<path d="M419.922 30.0471V65.5001H577.614V30.0471H419.922ZM575.625 63.5001H495.077V32.0471H575.625V63.5001Z" fill="#080829"/>
<path d="M428.304 53.713V41.926H432.349V50.574H439.485V53.713H428.304Z" fill="white"/>
<path d="M455.433 47.737C455.433 51.49 453.104 53.893 447.564 53.893C442.533 53.893 439.681 51.821 439.681 47.737C439.681 44.118 442.399 41.656 447.564 41.656C452.81 41.656 455.433 43.923 455.433 47.737ZM451.372 47.782C451.372 46.082 450.67 44.719 447.549 44.719C444.697 44.719 443.771 45.935 443.771 47.782C443.771 49.659 444.621 50.875 447.562 50.875C450.523 50.875 451.372 49.584 451.372 47.782Z" fill="white"/>
<path d="M467.947 53.7131L467.842 52.5711C466.489 53.5423 464.842 54.0097 463.183 53.8931C460.69 53.8931 458.614 53.1421 457.45 51.6261C456.682 50.5193 456.294 49.1907 456.345 47.8421C456.301 46.5218 456.703 45.2253 457.484 44.1631C458.662 42.6921 460.798 41.7161 463.978 41.7161C467.636 41.7161 469.786 42.8421 470.711 44.7341C470.91 45.1797 471.026 45.6577 471.055 46.1451H467.185C467.088 45.8489 466.906 45.5879 466.663 45.3941C465.892 44.8801 464.971 44.6423 464.05 44.7191C463.509 44.6532 462.961 44.7034 462.441 44.8665C461.921 45.0296 461.441 45.3018 461.034 45.6651C460.571 46.3021 460.354 47.0863 460.422 47.8721C460.368 48.6218 460.568 49.3678 460.989 49.9891C461.4 50.3744 461.889 50.6662 462.422 50.845C462.955 51.0237 463.521 51.0852 464.079 51.0251C465.19 51.1159 466.292 50.7716 467.155 50.0641C467.341 49.8309 467.469 49.5567 467.528 49.2641H463.363V46.7311H471.157V53.7131H467.947Z" fill="white"/>
<path d="M488.044 47.737C488.044 51.49 485.714 53.893 480.175 53.893C475.143 53.893 472.291 51.821 472.291 47.737C472.291 44.118 475.01 41.656 480.175 41.656C485.417 41.656 488.044 43.923 488.044 47.737ZM483.983 47.782C483.983 46.082 483.281 44.719 480.16 44.719C477.308 44.719 476.381 45.935 476.381 47.782C476.381 49.659 477.233 50.875 480.173 50.875C483.133 50.875 483.983 49.584 483.983 47.782Z" fill="white"/>
<path d="M501.891 53.6681V41.8811H504.775V53.6681H501.891Z" fill="#080829"/>
<path d="M519.584 48.7431C518.853 49.7041 517.595 50.1431 515.822 50.1541C515.448 50.1541 510.491 50.1391 510.491 50.1391V53.6681H507.669V41.8811H515.823C516.476 41.8116 517.137 41.8813 517.762 42.0856C518.387 42.29 518.962 42.6244 519.45 43.0671C520.095 43.9113 520.408 44.9639 520.332 46.0251C520.397 46.9903 520.134 47.9492 519.584 48.7431ZM517.27 44.9001C516.971 44.4501 516.328 44.2001 515.239 44.2001H510.476V47.7881H515.208C516.373 47.7881 516.986 47.5481 517.27 47.0821C517.439 46.7538 517.51 46.3841 517.479 46.0161C517.503 45.6323 517.432 45.2484 517.27 44.9001Z" fill="#080829"/>
<path d="M528.648 53.8479C523.332 53.8479 521.705 51.8479 521.705 49.8689H524.721C524.721 50.8449 526.049 51.5809 528.782 51.5809C531.499 51.5809 532.216 51.0999 532.216 50.3189C532.216 49.4479 531.679 49.1779 529.155 48.8929C528.658 48.8479 527.304 48.6829 526.796 48.6079C523.216 48.2019 521.838 47.1359 521.838 45.2289C521.838 43.2169 523.855 41.7009 528.229 41.7009C532.978 41.7009 534.799 43.5779 534.799 45.5299H531.816C531.816 44.5389 530.696 43.9679 528.053 43.9679C525.335 43.9679 524.754 44.3429 524.754 45.0789C524.754 45.8449 525.35 46.0849 528.234 46.4299C528.891 46.5209 530.354 46.6859 530.757 46.7299C533.804 47.0449 535.177 48.1559 535.177 50.1229C535.172 52.4659 533.082 53.8479 528.648 53.8479Z" fill="#080829"/>
<path d="M543.669 53.8331C539.773 53.8331 537.235 52.2861 537.235 49.0331V41.8811H540.086V49.0731C540.086 50.5601 541.296 51.5501 543.789 51.5501C546.043 51.5501 547.388 50.6201 547.388 49.0731V41.8811H550.21V49.3001C550.21 52.2571 547.85 53.8331 543.669 53.8331Z" fill="#080829"/>
<path d="M565.663 53.6681V45.8001L562.004 53.6681H559.228L555.674 45.8001V53.6681H552.989V41.8811H556.627L560.658 50.8601L564.779 41.8811H568.359V53.6681H565.663Z" fill="#080829"/>
<path d="M850.055 62.8251H875.705V37.175H850.055V62.8251ZM870.768 47.5321H865.348V42.112H870.768V47.5321ZM854.991 42.112H860.414V52.468H870.768V57.8881H854.991V42.112ZM892.408 37.175C889.871 37.175 887.392 37.9272 885.283 39.3364C883.174 40.7457 881.53 42.7486 880.559 45.0921C879.589 47.4356 879.334 50.0143 879.829 52.5022C880.324 54.99 881.546 57.2751 883.339 59.0687C885.133 60.8623 887.418 62.0838 889.906 62.5787C892.394 63.0735 894.972 62.8195 897.316 61.8489C899.659 60.8782 901.662 59.2343 903.072 57.1252C904.481 55.0161 905.233 52.5366 905.233 50C905.229 46.5998 903.876 43.3401 901.472 40.9358C899.068 38.5315 895.808 37.179 892.408 37.175ZM892.408 57.8881C890.848 57.8881 889.323 57.4255 888.026 56.5587C886.728 55.692 885.717 54.4601 885.12 53.0187C884.523 51.5773 884.367 49.9914 884.672 48.4612C884.976 46.9311 885.727 45.5256 886.83 44.4225C887.933 43.3193 889.339 42.5679 890.869 42.2636C892.399 41.9592 893.985 42.1155 895.426 42.7126C896.868 43.3096 898.1 44.3205 898.967 45.6177C899.833 46.9149 900.296 48.4399 900.296 50C900.293 52.0911 899.461 54.0956 897.982 55.5742C896.504 57.0528 894.499 57.8848 892.408 57.8881ZM951.127 37.175C948.59 37.1748 946.111 37.9268 944.001 39.3359C941.892 40.745 940.248 42.748 939.277 45.0914C938.307 47.4349 938.052 50.0136 938.547 52.5014C939.042 54.9893 940.263 57.2746 942.057 59.0683C943.85 60.862 946.136 62.0836 948.624 62.5785C951.111 63.0735 953.69 62.8195 956.034 61.8489C958.377 60.8783 960.38 59.2345 961.789 57.1254C963.199 55.0163 963.951 52.5366 963.951 50C963.947 46.6 962.595 43.3404 960.191 40.9361C957.786 38.5318 954.527 37.1793 951.127 37.175ZM951.127 57.8881C949.567 57.8883 948.042 57.4258 946.744 56.5592C945.447 55.6926 944.436 54.4606 943.839 53.0193C943.241 51.578 943.085 49.9919 943.389 48.4618C943.694 46.9316 944.445 45.526 945.548 44.4227C946.651 43.3195 948.057 42.5681 949.587 42.2637C951.117 41.9592 952.703 42.1154 954.144 42.7124C955.586 43.3094 956.818 44.3204 957.684 45.6176C958.551 46.9148 959.014 48.4399 959.014 50C959.011 52.091 958.179 54.0952 956.7 55.5738C955.222 57.0524 953.218 57.8846 951.127 57.8881ZM921.767 37.175C919.23 37.175 916.751 37.9272 914.642 39.3364C912.533 40.7457 910.889 42.7486 909.918 45.0921C908.947 47.4356 908.694 50.0143 909.188 52.5022C909.683 54.99 910.905 57.2751 912.698 59.0687C914.492 60.8623 916.777 62.0838 919.265 62.5787C921.753 63.0735 924.331 62.8195 926.675 61.8489C929.018 60.8782 931.021 59.2343 932.431 57.1252C933.84 55.0161 934.592 52.5366 934.592 50C934.588 46.5998 933.235 43.3401 930.831 40.9358C928.427 38.5315 925.167 37.179 921.767 37.175ZM921.767 57.8881C920.313 57.8888 918.888 57.4879 917.648 56.7295C916.408 55.9713 915.401 54.8852 914.74 53.591C914.078 52.2968 913.787 50.8448 913.898 49.3956C914.01 47.9463 914.519 46.5561 915.371 45.3783C916.223 44.2004 917.383 43.2806 918.724 42.7207C920.066 42.1608 921.536 41.9824 922.972 42.2053C924.409 42.4281 925.755 43.0434 926.864 43.9834C927.973 44.9234 928.8 46.1516 929.255 47.5321H921.767V52.468H929.255C928.734 54.0433 927.73 55.4148 926.386 56.3876C925.042 57.3605 923.426 57.8855 921.767 57.8881Z" fill="#080829"/>
<path d="M246.961 48.371C246.584 48.7523 246.296 49.2124 246.116 49.7187C245.936 50.225 245.87 50.7649 245.921 51.3L245.903 51.282C245.956 51.9118 245.872 52.5457 245.656 53.1393C245.44 53.733 245.098 54.2721 244.653 54.7191C244.209 55.166 243.673 55.51 243.082 55.7271C242.492 55.9442 241.862 56.0292 241.235 55.976L241.253 55.994C240.504 55.9239 239.752 56.0878 239.098 56.4635C238.445 56.8392 237.923 57.4083 237.604 58.0933C237.284 58.7783 237.182 59.5457 237.312 60.291C237.442 61.0364 237.797 61.7233 238.329 62.2581C238.862 62.7929 239.545 63.1496 240.286 63.2795C241.027 63.4095 241.791 63.3063 242.471 62.9842C243.152 62.662 243.718 62.1365 244.091 61.4794C244.464 60.8222 244.626 60.0653 244.556 59.312L244.575 59.33C244.522 58.7001 244.606 58.0663 244.822 57.4726C245.038 56.879 245.38 56.3399 245.825 55.8929C246.269 55.446 246.805 55.1019 247.395 54.8848C247.986 54.6677 248.616 54.5828 249.242 54.636L249.224 54.618C249.836 54.6733 250.452 54.5724 251.014 54.3246C251.577 54.0768 252.069 53.6901 252.444 53.2004C252.818 52.7107 253.064 52.1337 253.158 51.523C253.252 50.9124 253.191 50.2877 252.981 49.707C252.771 49.1263 252.419 48.6083 251.957 48.201C251.494 47.7937 250.938 47.5103 250.338 47.3771C249.738 47.2439 249.114 47.2651 248.524 47.4388C247.934 47.6126 247.398 47.9332 246.964 48.371H246.961Z" fill="#080829"/>
<path d="M239.625 53.636L239.607 53.618C240.139 53.6719 240.676 53.6062 241.181 53.4256C241.685 53.245 242.142 52.9541 242.521 52.5738C242.899 52.1935 243.189 51.7333 243.369 51.2266C243.549 50.7199 243.615 50.1794 243.561 49.644L243.58 49.662C243.527 49.0321 243.612 48.3983 243.828 47.8046C244.044 47.211 244.386 46.6719 244.83 46.2249C245.275 45.778 245.811 45.4339 246.401 45.2169C246.991 44.9998 247.622 44.9148 248.248 44.968L248.229 44.95C248.978 45.0208 249.731 44.8574 250.385 44.4821C251.038 44.1068 251.561 43.538 251.881 42.8531C252.201 42.1682 252.303 41.4007 252.174 40.6552C252.045 39.9097 251.689 39.2225 251.157 38.6874C250.625 38.1522 249.942 37.7952 249.2 37.665C248.459 37.5347 247.696 37.6377 247.015 37.9597C246.334 38.2817 245.768 38.8071 245.395 39.4643C245.022 40.1215 244.859 40.8785 244.93 41.632L244.912 41.613C244.965 42.2429 244.88 42.8768 244.665 43.4706C244.449 44.0643 244.107 44.6035 243.662 45.0505C243.218 45.4974 242.682 45.8415 242.091 46.0585C241.501 46.2755 240.87 46.3603 240.244 46.307L240.262 46.326C239.729 46.2721 239.192 46.3378 238.688 46.5184C238.184 46.6989 237.726 46.9899 237.348 47.3702C236.969 47.7505 236.68 48.2107 236.5 48.7174C236.32 49.2241 236.254 49.7646 236.307 50.3L236.289 50.282C236.342 50.9118 236.257 51.5456 236.041 52.1392C235.825 52.7327 235.483 53.2718 235.039 53.7187C234.594 54.1656 234.058 54.5096 233.468 54.7268C232.878 54.9439 232.248 55.029 231.621 54.976L231.639 54.994C230.89 54.9232 230.137 55.0866 229.484 55.4619C228.83 55.8372 228.308 56.406 227.988 57.0909C227.667 57.7758 227.565 58.5433 227.694 59.2888C227.824 60.0343 228.179 60.7215 228.711 61.2566C229.243 61.7918 229.927 62.1488 230.668 62.279C231.409 62.4092 232.173 62.3063 232.854 61.9843C233.535 61.6623 234.1 61.1369 234.474 60.4796C234.847 59.8224 235.009 59.0655 234.939 58.312L234.958 58.33C234.905 57.7001 234.989 57.0663 235.205 56.4726C235.421 55.879 235.763 55.3399 236.208 54.8929C236.652 54.446 237.188 54.1019 237.778 53.8848C238.369 53.6678 238.999 53.5828 239.625 53.636Z" fill="#080829"/>
<path d="M232.961 51.6289C233.338 51.2477 233.626 50.7875 233.806 50.2812C233.986 49.7749 234.052 49.2349 234 48.6999L234.019 48.7179C233.966 48.0879 234.051 47.4538 234.267 46.86C234.483 46.2662 234.825 45.727 235.27 45.28C235.714 44.833 236.251 44.489 236.841 44.2721C237.432 44.0551 238.062 43.9704 238.689 44.0239L238.67 44.0059C239.419 44.0765 240.171 43.913 240.825 43.5377C241.478 43.1625 242 42.5938 242.32 41.9091C242.64 41.2245 242.742 40.4572 242.613 39.712C242.483 38.9668 242.128 38.2798 241.596 37.7449C241.064 37.21 240.381 36.853 239.64 36.7228C238.899 36.5926 238.136 36.6954 237.455 37.0172C236.775 37.3391 236.209 37.8642 235.836 38.5211C235.463 39.178 235.3 39.9347 235.37 40.6879L235.352 40.6699C235.405 41.2998 235.321 41.9336 235.105 42.5273C234.889 43.1209 234.547 43.66 234.103 44.107C233.658 44.5539 233.122 44.898 232.532 45.115C231.941 45.3321 231.311 45.4171 230.685 45.3639L230.703 45.3819C230.091 45.3267 229.475 45.4278 228.912 45.6757C228.349 45.9236 227.858 46.3104 227.483 46.8002C227.108 47.2899 226.863 47.8669 226.769 48.4775C226.675 49.0882 226.736 49.7128 226.946 50.2934C227.156 50.8741 227.509 51.392 227.971 51.7992C228.433 52.2065 228.99 52.4898 229.59 52.623C230.19 52.7561 230.813 52.7348 231.403 52.5611C231.993 52.3873 232.529 52.0667 232.963 51.6289H232.961Z" fill="#080829"/>
<path d="M263.765 41.655H266.718V56.108H263.765V41.655Z" fill="#080829"/>
<path d="M268.391 51.1591C268.387 50.1204 268.689 49.1039 269.26 48.2383C269.831 47.3727 270.644 46.6969 271.597 46.2965C272.55 45.8962 273.6 45.7893 274.614 45.9894C275.627 46.1894 276.559 46.6875 277.291 47.4205C278.022 48.1534 278.521 49.0883 278.724 50.1067C278.927 51.1251 278.825 52.1812 278.431 53.1412C278.037 54.1011 277.368 54.9219 276.509 55.4993C275.651 56.0768 274.641 56.3851 273.609 56.3851C272.923 56.3929 272.243 56.2633 271.607 56.0037C270.972 55.7441 270.395 55.3598 269.909 54.8732C269.423 54.3867 269.039 53.8076 268.778 53.1699C268.517 52.5322 268.386 51.8486 268.391 51.1591ZM275.873 51.1591C275.861 50.7114 275.717 50.2773 275.461 49.911C275.205 49.5448 274.847 49.2626 274.432 49.0999C274.017 48.9371 273.563 48.9009 273.128 48.9959C272.693 49.0909 272.295 49.3127 271.985 49.6338C271.674 49.9548 271.465 50.3608 271.382 50.801C271.3 51.2411 271.348 51.6959 271.522 52.1085C271.695 52.521 271.985 52.8731 272.357 53.1206C272.728 53.3681 273.163 53.5001 273.609 53.5001C273.914 53.5083 274.217 53.4528 274.5 53.3372C274.782 53.2216 275.038 53.0484 275.251 52.8285C275.463 52.6085 275.629 52.3466 275.736 52.0593C275.843 51.772 275.889 51.4655 275.873 51.1591Z" fill="#080829"/>
<path d="M290.597 46.2091V55.6091C290.597 58.9351 288.018 60.3411 285.399 60.3411C284.477 60.4105 283.554 60.2232 282.731 59.7999C281.908 59.3765 281.217 58.7334 280.734 57.9411L283.253 56.4761C283.457 56.8891 283.781 57.2298 284.182 57.4527C284.583 57.6755 285.042 57.7699 285.498 57.7231C285.789 57.7637 286.086 57.7379 286.366 57.6476C286.646 57.5573 286.902 57.4049 287.116 57.2015C287.33 56.9981 287.495 56.7491 287.6 56.4727C287.705 56.1964 287.747 55.8999 287.722 55.6051V54.7001C287.376 55.1256 286.936 55.4637 286.437 55.6872C285.938 55.9107 285.393 56.0134 284.847 55.9871C283.549 55.9459 282.317 55.3981 281.412 54.4595C280.508 53.521 280.002 52.2654 280.002 50.9586C280.002 49.6518 280.508 48.3962 281.412 47.4577C282.317 46.5191 283.549 45.9713 284.847 45.9301C285.393 45.9038 285.938 46.0065 286.437 46.23C286.936 46.4535 287.376 46.7916 287.722 47.2171V46.2071L290.597 46.2091ZM287.723 50.9601C287.743 50.4815 287.62 50.0078 287.37 49.6001C287.12 49.1923 286.754 48.8692 286.32 48.6723C285.886 48.4753 285.403 48.4136 284.933 48.495C284.464 48.5764 284.029 48.7972 283.686 49.1291C283.342 49.4609 283.105 49.8885 283.005 50.3569C282.905 50.8254 282.947 51.3131 283.125 51.7574C283.303 52.2017 283.61 52.5823 284.005 52.8501C284.4 53.1179 284.865 53.2607 285.342 53.2601C285.652 53.2819 285.963 53.2381 286.256 53.1315C286.548 53.0249 286.815 52.8578 287.04 52.6412C287.264 52.4245 287.441 52.163 287.558 51.8734C287.676 51.5839 287.732 51.2728 287.723 50.9601Z" fill="#080829"/>
<path d="M292.27 51.1591C292.266 50.1204 292.568 49.1039 293.139 48.2383C293.71 47.3727 294.523 46.6969 295.476 46.2965C296.429 45.8962 297.479 45.7893 298.492 45.9894C299.506 46.1894 300.438 46.6875 301.169 47.4205C301.901 48.1534 302.4 49.0883 302.603 50.1067C302.806 51.1251 302.704 52.1812 302.31 53.1412C301.916 54.1011 301.247 54.9219 300.388 55.4993C299.53 56.0768 298.52 56.3851 297.487 56.3851C296.802 56.3929 296.122 56.2633 295.486 56.0037C294.851 55.7441 294.274 55.3598 293.788 54.8732C293.302 54.3867 292.918 53.8076 292.657 53.1699C292.396 52.5322 292.265 51.8486 292.27 51.1591ZM299.752 51.1591C299.739 50.7114 299.596 50.2773 299.34 49.911C299.083 49.5448 298.725 49.2626 298.311 49.0999C297.896 48.9371 297.442 48.9009 297.007 48.9959C296.572 49.0909 296.174 49.3127 295.863 49.6338C295.553 49.9548 295.343 50.3608 295.261 50.801C295.179 51.2411 295.227 51.6959 295.401 52.1085C295.574 52.521 295.864 52.8731 296.235 53.1206C296.607 53.3681 297.042 53.5001 297.487 53.5001C297.792 53.5083 298.096 53.4528 298.379 53.3372C298.661 53.2216 298.917 53.0484 299.13 52.8285C299.342 52.6085 299.507 52.3466 299.615 52.0593C299.722 51.772 299.768 51.4655 299.752 51.1591Z" fill="#080829"/>
<path d="M304.082 43.5559C304.082 43.2034 304.186 42.8589 304.381 42.5659C304.576 42.2728 304.852 42.0444 305.176 41.9095C305.5 41.7747 305.856 41.7394 306.2 41.8081C306.544 41.8769 306.86 42.0466 307.107 42.2958C307.355 42.545 307.524 42.8626 307.593 43.2082C307.66 43.5539 307.625 43.9122 307.491 44.2378C307.357 44.5634 307.13 44.8418 306.839 45.0376C306.548 45.2334 306.204 45.3379 305.854 45.3379C305.386 45.3332 304.938 45.144 304.606 44.8108C304.275 44.4776 304.087 44.0271 304.082 43.5559ZM304.381 46.2089H307.335V56.1089H304.377L304.381 46.2089Z" fill="#080829"/>
<path d="M320.087 51.159C320.121 51.8133 320.027 52.4679 319.808 53.0852C319.59 53.7025 319.252 54.2703 318.816 54.756C318.378 55.2416 317.85 55.6356 317.26 55.9152C316.671 56.1947 316.032 56.3544 315.382 56.385C314.835 56.415 314.287 56.3222 313.78 56.1133C313.273 55.9043 312.818 55.5845 312.449 55.177V60.068H309.496V46.209H312.449V47.139C312.818 46.7318 313.274 46.4122 313.781 46.2035C314.288 45.9947 314.835 45.902 315.382 45.932C316.033 45.9625 316.672 46.1221 317.26 46.4017C317.85 46.6813 318.379 47.0753 318.816 47.5611C319.253 48.0469 319.591 48.6149 319.809 49.2324C320.027 49.8498 320.122 50.5046 320.087 51.159ZM317.134 51.159C317.122 50.6957 316.975 50.2461 316.711 49.8664C316.447 49.4868 316.077 49.194 315.647 49.0248C315.219 48.8555 314.749 48.8172 314.299 48.9148C313.848 49.0123 313.437 49.2413 313.115 49.5731C312.792 49.905 312.576 50.3249 312.49 50.7803C312.405 51.2357 312.454 51.7063 312.633 52.1334C312.812 52.5605 313.113 52.9249 313.496 53.1812C313.88 53.4374 314.332 53.5741 314.792 53.574C315.108 53.5882 315.425 53.5349 315.719 53.4177C316.013 53.3006 316.28 53.1221 316.502 52.8941C316.722 52.666 316.893 52.3936 317.002 52.0946C317.111 51.7956 317.156 51.4767 317.134 51.159Z" fill="#080829"/>
<path d="M329.201 53.1381C329.201 55.4151 327.233 56.3851 325.107 56.3851C324.248 56.4634 323.386 56.2807 322.631 55.8607C321.876 55.4406 321.264 54.8026 320.874 54.0291L323.433 52.5641C323.536 52.9217 323.759 53.2327 324.062 53.4453C324.366 53.6578 324.734 53.7591 325.103 53.7321C325.811 53.7321 326.166 53.5141 326.166 53.1191C326.166 52.0291 321.323 52.6041 321.323 49.1791C321.323 47.0201 323.134 45.9321 325.182 45.9321C325.951 45.9076 326.713 46.0912 327.388 46.4637C328.064 46.8363 328.627 47.3841 329.02 48.0501L326.5 49.4161C326.39 49.1568 326.206 48.9359 325.971 48.781C325.737 48.6261 325.462 48.5441 325.182 48.5451C324.67 48.5451 324.354 48.7451 324.354 49.0991C324.358 50.2281 329.201 49.4751 329.201 53.1381Z" fill="#080829"/>
<path d="M339.99 46.209V56.109H337.036V55.178C336.695 55.5888 336.263 55.9125 335.773 56.1225C335.284 56.3325 334.753 56.4228 334.222 56.386C332.233 56.386 330.543 54.961 330.543 52.286V46.209H333.496V51.851C333.471 52.0868 333.498 52.3252 333.575 52.5495C333.65 52.7739 333.775 52.9789 333.938 53.1502C334.101 53.3215 334.299 53.4551 334.518 53.5415C334.737 53.628 334.973 53.6654 335.208 53.651C336.291 53.651 337.039 53.018 337.039 51.612V46.212L339.99 46.209Z" fill="#080829"/>
<path d="M356.924 50.03V56.108H353.971V50.287C353.971 49.297 353.499 48.664 352.554 48.664C351.57 48.664 351.018 49.357 351.018 50.525V56.108H348.065V50.287C348.065 49.297 347.593 48.664 346.647 48.664C345.663 48.664 345.112 49.357 345.112 50.525V56.108H342.158V46.208H345.112V47.118C345.418 46.7143 345.82 46.3941 346.28 46.1868C346.742 45.9794 347.247 45.8915 347.75 45.931C348.255 45.9061 348.758 46.0134 349.211 46.2422C349.662 46.4711 350.047 46.8138 350.329 47.237C350.656 46.7943 351.089 46.4423 351.588 46.2139C352.088 45.9855 352.637 45.8882 353.184 45.931C355.444 45.932 356.924 47.555 356.924 50.03Z" fill="#080829"/>
<path d="M359.422 46.148C360.633 46.148 361.614 45.1612 361.614 43.944C361.614 42.7268 360.633 41.74 359.422 41.74C358.212 41.74 357.231 42.7268 357.231 43.944C357.231 45.1612 358.212 46.148 359.422 46.148Z" fill="#080829"/>
<path d="M1066.25 40.7297V36.9231H1054.31V63.0769H1066.25V59.2703C1063.8 59.2703 1061.46 58.2935 1059.73 56.555C1058 54.8165 1057.03 52.4586 1057.03 50C1057.03 47.5414 1058 45.1834 1059.73 43.4449C1061.46 41.7064 1063.8 40.7297 1066.25 40.7297Z" fill="#080829"/>
<path d="M1066.25 40.7297V59.2703C1068.69 59.2703 1071.04 58.2935 1072.77 56.555C1074.5 54.8165 1075.47 52.4586 1075.47 50C1075.47 47.5414 1074.5 45.1834 1072.77 43.4449C1071.04 41.7064 1068.69 40.7297 1066.25 40.7297Z" fill="#080829"/>
<path d="M1082.17 43.0586H1084.84V56.0011H1082.17V43.0586Z" fill="#080829"/>
<path d="M1086.33 51.5674C1086.33 50.6363 1086.61 49.7261 1087.12 48.9522C1087.64 48.1783 1088.37 47.5756 1089.23 47.2205C1090.08 46.8655 1091.02 46.7739 1091.93 46.9575C1092.84 47.1412 1093.67 47.5917 1094.33 48.252C1094.98 48.9124 1095.42 49.7527 1095.6 50.6666C1095.78 51.5806 1095.68 52.5269 1095.32 53.3857C1094.96 54.2443 1094.36 54.9769 1093.59 55.4903C1092.82 56.0038 1091.91 56.275 1090.98 56.2697C1090.37 56.2746 1089.76 56.1561 1089.19 55.9211C1088.62 55.6861 1088.11 55.3395 1087.68 54.9016C1087.24 54.4636 1086.9 53.943 1086.67 53.3705C1086.44 52.798 1086.33 52.185 1086.33 51.5674ZM1093.03 51.5674C1093.02 51.166 1092.89 50.7765 1092.66 50.4479C1092.43 50.1192 1092.11 49.8658 1091.74 49.7195C1091.37 49.5731 1090.96 49.5402 1090.57 49.6251C1090.18 49.7098 1089.83 49.9084 1089.55 50.196C1089.27 50.4837 1089.08 50.8475 1089.01 51.2421C1088.93 51.6367 1088.98 52.0446 1089.13 52.4146C1089.29 52.7846 1089.55 53.1005 1089.88 53.3225C1090.21 53.5446 1090.6 53.6631 1091 53.6633C1091.27 53.6687 1091.54 53.6175 1091.79 53.5131C1092.05 53.4088 1092.27 53.2534 1092.46 53.0567C1092.65 52.86 1092.8 52.6261 1092.89 52.37C1092.99 52.1137 1093.03 51.8405 1093.01 51.5674H1093.03Z" fill="#080829"/>
<path d="M1106.2 47.134V55.5623C1106.2 58.536 1103.89 59.7989 1101.55 59.7989C1100.72 59.867 1099.89 59.702 1099.15 59.3222C1098.42 58.9424 1097.8 58.363 1097.37 57.6493L1099.62 56.3416C1099.81 56.7118 1100.1 57.0173 1100.46 57.2173C1100.82 57.4173 1101.23 57.5024 1101.64 57.4612C1101.9 57.4934 1102.16 57.4674 1102.41 57.385C1102.66 57.3025 1102.89 57.1658 1103.08 56.9843C1103.27 56.8028 1103.42 56.5813 1103.51 56.3355C1103.61 56.0897 1103.65 55.8257 1103.63 55.5623V54.7473C1103.32 55.1264 1102.93 55.4273 1102.48 55.6264C1102.03 55.8254 1101.54 55.9169 1101.06 55.8937C1099.88 55.8937 1098.74 55.4219 1097.91 54.582C1097.07 53.7422 1096.6 52.6031 1096.6 51.4153C1096.6 50.2276 1097.07 49.0885 1097.91 48.2487C1098.74 47.4088 1099.88 46.9369 1101.06 46.9369C1101.54 46.9137 1102.03 47.0053 1102.48 47.2043C1102.93 47.4033 1103.32 47.7043 1103.63 48.0834V47.1877L1106.2 47.134ZM1103.63 51.3885C1103.65 50.96 1103.54 50.5359 1103.31 50.1708C1103.09 49.8057 1102.76 49.5163 1102.37 49.3398C1101.99 49.1632 1101.55 49.1077 1101.13 49.1803C1100.71 49.2528 1100.32 49.4501 1100.02 49.7469C1099.71 50.0436 1099.5 50.4262 1099.41 50.8455C1099.32 51.2648 1099.35 51.7014 1099.51 52.0995C1099.67 52.4975 1099.94 52.8387 1100.3 53.0791C1100.65 53.3195 1101.07 53.4482 1101.49 53.4485C1101.77 53.4687 1102.05 53.4299 1102.31 53.3348C1102.58 53.2396 1102.82 53.0901 1103.02 52.8959C1103.22 52.7018 1103.38 52.4673 1103.48 52.2076C1103.59 51.948 1103.64 51.6689 1103.63 51.3885Z" fill="#080829"/>
<path d="M1107.71 51.5675C1107.71 50.6371 1107.98 49.7276 1108.5 48.9541C1109.01 48.1806 1109.74 47.5779 1110.6 47.2223C1111.45 46.8667 1112.39 46.774 1113.3 46.9562C1114.21 47.1384 1115.04 47.5871 1115.7 48.2456C1116.35 48.9042 1116.79 49.7429 1116.97 50.6556C1117.15 51.5684 1117.06 52.5142 1116.7 53.3732C1116.35 54.2324 1115.75 54.9661 1114.98 55.4817C1114.21 55.9974 1113.3 56.2716 1112.38 56.2699C1111.76 56.2759 1111.15 56.1583 1110.58 55.9239C1110.01 55.6896 1109.5 55.3434 1109.06 54.9054C1108.63 54.4674 1108.28 53.9466 1108.05 53.3734C1107.82 52.8003 1107.7 52.1863 1107.71 51.5675ZM1114.41 51.5675C1114.4 51.1657 1114.27 50.7759 1114.04 50.447C1113.81 50.1182 1113.49 49.8649 1113.12 49.7188C1112.74 49.5727 1112.34 49.5403 1111.95 49.6259C1111.56 49.7113 1111.2 49.9109 1110.92 50.1994C1110.64 50.4879 1110.45 50.8526 1110.38 51.2478C1110.31 51.643 1110.35 52.051 1110.51 52.4209C1110.67 52.7908 1110.93 53.106 1111.26 53.327C1111.6 53.548 1111.99 53.665 1112.39 53.6634C1112.66 53.6688 1112.93 53.6177 1113.18 53.5132C1113.43 53.4089 1113.66 53.2535 1113.85 53.0568C1114.04 52.8601 1114.18 52.6262 1114.28 52.3701C1114.37 52.1138 1114.41 51.8406 1114.4 51.5675H1114.41Z" fill="#080829"/>
<path d="M1118.28 44.7605C1118.28 44.4453 1118.38 44.137 1118.55 43.8748C1118.72 43.6126 1118.97 43.4083 1119.26 43.2876C1119.55 43.1669 1119.87 43.1354 1120.18 43.1969C1120.48 43.2584 1120.77 43.4102 1120.99 43.6332C1121.21 43.8562 1121.36 44.1403 1121.42 44.4495C1121.48 44.7588 1121.45 45.0793 1121.33 45.3707C1121.21 45.662 1121.01 45.911 1120.75 46.0862C1120.49 46.2613 1120.18 46.3549 1119.87 46.3549C1119.45 46.3502 1119.05 46.1807 1118.75 45.8827C1118.46 45.5848 1118.29 45.182 1118.28 44.7605ZM1118.54 47.1341H1121.21V56.0013H1118.54V47.1341Z" fill="#080829"/>
<path d="M1132.65 51.5676C1132.68 52.1573 1132.59 52.7472 1132.4 53.3033C1132.2 53.8593 1131.89 54.3706 1131.5 54.8076C1131.1 55.2446 1130.63 55.5988 1130.09 55.8498C1129.56 56.1007 1128.99 56.2435 1128.4 56.2699C1127.9 56.3032 1127.4 56.2231 1126.94 56.0354C1126.48 55.8477 1126.06 55.5574 1125.73 55.1862V59.566H1123.06V47.134H1125.73V47.967C1126.06 47.5968 1126.48 47.3078 1126.94 47.1217C1127.4 46.9355 1127.9 46.8571 1128.4 46.8922C1128.98 46.9186 1129.56 47.0606 1130.09 47.3098C1130.62 47.5591 1131.09 47.9109 1131.49 48.345C1131.88 48.7792 1132.19 49.2872 1132.39 49.8402C1132.59 50.3931 1132.68 50.98 1132.65 51.5676ZM1129.98 51.5676C1129.97 51.1516 1129.83 50.748 1129.6 50.4073C1129.36 50.0667 1129.03 49.8041 1128.64 49.6526C1128.26 49.5011 1127.83 49.4674 1127.43 49.5556C1127.03 49.6439 1126.66 49.8502 1126.37 50.1488C1126.08 50.4473 1125.88 50.8247 1125.81 51.2339C1125.73 51.6429 1125.78 52.0654 1125.94 52.4484C1126.1 52.8313 1126.37 53.1577 1126.72 53.3866C1127.07 53.6156 1127.47 53.7368 1127.88 53.7352C1128.17 53.7472 1128.45 53.699 1128.71 53.5935C1128.98 53.4879 1129.22 53.3276 1129.41 53.123C1129.61 52.9183 1129.76 52.6739 1129.86 52.4059C1129.96 52.1378 1130 51.8522 1129.98 51.5676Z" fill="#080829"/>
<path d="M1140.78 53.3409C1140.78 55.3831 1139 56.2519 1137.11 56.2519C1136.34 56.3216 1135.57 56.1574 1134.89 55.7806C1134.22 55.4038 1133.67 54.8316 1133.32 54.1381L1135.62 52.8304C1135.71 53.15 1135.9 53.4285 1136.17 53.6192C1136.44 53.81 1136.77 53.9015 1137.1 53.8784C1137.74 53.8784 1138.06 53.6813 1138.06 53.323C1138.06 52.3467 1133.72 52.8662 1133.72 49.7941C1133.72 47.8594 1135.34 46.8921 1137.17 46.8921C1137.87 46.8606 1138.56 47.0198 1139.18 47.3525C1139.79 47.6853 1140.31 48.1792 1140.66 48.7819L1138.37 50.0001C1138.27 49.769 1138.1 49.5725 1137.89 49.4342C1137.68 49.2959 1137.43 49.2218 1137.18 49.2208C1136.72 49.2208 1136.44 49.4 1136.44 49.7134C1136.44 50.7345 1140.78 50.0628 1140.78 53.3409Z" fill="#080829"/>
<path d="M1150.46 47.1338V56.0011H1147.79V55.1681C1147.49 55.5368 1147.1 55.8286 1146.67 56.02C1146.23 56.2114 1145.75 56.2969 1145.28 56.2698C1143.5 56.2698 1141.97 54.9889 1141.97 52.5975V47.1338H1144.65V52.1944C1144.63 52.406 1144.65 52.6196 1144.72 52.8206C1144.79 53.0215 1144.9 53.2049 1145.05 53.3583C1145.19 53.5115 1145.37 53.631 1145.57 53.7085C1145.77 53.7859 1145.98 53.8194 1146.19 53.8067C1147.15 53.8067 1147.83 53.2334 1147.83 52.0153V47.1338H1150.46Z" fill="#080829"/>
<path d="M1165.6 50.5552V56.001H1162.93V50.7881C1162.93 49.8924 1162.51 49.3371 1161.67 49.3371C1160.82 49.3371 1160.29 49.9551 1160.29 51.0031V56.001H1157.61V50.7881C1157.61 49.8924 1157.2 49.3371 1156.35 49.3371C1155.5 49.3371 1154.97 49.9551 1154.97 51.0031V56.001H1152.3V47.1338H1154.97V47.9488C1155.25 47.5888 1155.61 47.3036 1156.02 47.1191C1156.43 46.9346 1156.89 46.8565 1157.34 46.8919C1157.79 46.8682 1158.24 46.9631 1158.64 47.1673C1159.05 47.3714 1159.39 47.6778 1159.65 48.0563C1159.94 47.6608 1160.33 47.3466 1160.77 47.143C1161.22 46.9393 1161.71 46.853 1162.2 46.8919C1164.29 46.8919 1165.6 48.3429 1165.6 50.5552Z" fill="#080829"/>
<path d="M1167.85 47.0803C1168.93 47.0803 1169.81 46.1981 1169.81 45.1098C1169.81 44.0216 1168.93 43.1394 1167.85 43.1394C1166.77 43.1394 1165.89 44.0216 1165.89 45.1098C1165.89 46.1981 1166.77 47.0803 1167.85 47.0803Z" fill="#080829"/>
<path d="M681.833 57.3901C681.241 57.4223 680.656 57.2532 680.172 56.9101C679.97 56.7593 679.807 56.5612 679.698 56.333C679.589 56.1047 679.537 55.8532 679.546 55.6001V46.3301C679.541 46.2909 679.545 46.251 679.558 46.2136C679.571 46.1762 679.592 46.1422 679.619 46.1143C679.647 46.0863 679.681 46.0651 679.718 46.0522C679.755 46.0394 679.795 46.0352 679.834 46.0401H681.505C681.694 46.0401 681.783 46.1401 681.783 46.3301V54.8801C681.783 55.2601 681.952 55.4501 682.3 55.4501C682.448 55.4562 682.595 55.4394 682.738 55.4001C682.937 55.4001 683.046 55.4601 683.056 55.6401L683.205 56.8901C683.212 56.9265 683.212 56.9641 683.203 57.0003C683.195 57.0364 683.179 57.0703 683.156 57.0997C683.133 57.1291 683.105 57.1532 683.072 57.1706C683.039 57.1879 683.003 57.1979 682.966 57.2001C682.601 57.3216 682.218 57.3857 681.833 57.3901Z" fill="#080829"/>
<path d="M691.23 56.32C690.391 57.0175 689.336 57.399 688.247 57.399C687.158 57.399 686.103 57.0175 685.264 56.32C684.526 55.571 684.112 54.5593 684.112 53.505C684.112 52.4507 684.526 51.439 685.264 50.69C686.105 49.9961 687.159 49.6169 688.247 49.6169C689.335 49.6169 690.389 49.9961 691.23 50.69C691.951 51.4459 692.353 52.4527 692.353 53.5C692.353 54.5473 691.951 55.5541 691.23 56.31V56.32ZM686.835 55C687.224 55.3549 687.731 55.5514 688.257 55.5514C688.782 55.5514 689.289 55.3549 689.679 55C690.031 54.5924 690.226 54.0703 690.226 53.53C690.226 52.9897 690.031 52.4677 689.679 52.06C689.289 51.7052 688.782 51.5086 688.257 51.5086C687.731 51.5086 687.224 51.7052 686.835 52.06C686.482 52.4677 686.288 52.9897 686.288 53.53C686.288 54.0703 686.482 54.5924 686.835 55Z" fill="#080829"/>
<path d="M701.552 49.8699C701.741 49.8699 701.831 49.9699 701.831 50.1599V57.3299C701.848 57.8138 701.758 58.2956 701.567 58.7401C701.376 59.1847 701.089 59.5809 700.727 59.8999C699.923 60.5894 698.889 60.9467 697.833 60.8999C696.879 60.9336 695.939 60.6718 695.138 60.1499C694.796 59.9242 694.504 59.6301 694.28 59.286C694.056 58.942 693.905 58.5553 693.835 58.1499C693.835 57.9499 693.835 57.8599 694.104 57.8599H695.775C695.845 57.8623 695.914 57.8853 695.972 57.9261C696.031 57.967 696.076 58.0238 696.103 58.0899C696.211 58.3936 696.427 58.6464 696.709 58.7999C697.053 58.9784 697.436 59.0677 697.823 59.0599C698.057 59.0728 698.29 59.0387 698.511 58.9597C698.731 58.8808 698.933 58.7584 699.106 58.5999C699.264 58.4341 699.386 58.2378 699.467 58.023C699.547 57.8082 699.583 57.5792 699.573 57.3499V56.7199C698.975 57.1623 698.247 57.3911 697.505 57.3699C696.985 57.3889 696.467 57.3021 695.982 57.1148C695.497 56.9275 695.054 56.6435 694.681 56.2799C693.964 55.534 693.563 54.5373 693.563 53.4999C693.563 52.4626 693.964 51.4658 694.681 50.7199C695.056 50.3595 695.499 50.0782 695.984 49.8928C696.469 49.7073 696.986 49.6213 697.505 49.6399C698.269 49.6196 699.016 49.8631 699.623 50.3299V50.1699C699.618 50.1316 699.622 50.0927 699.635 50.0561C699.647 50.0195 699.667 49.9862 699.694 49.9584C699.72 49.9306 699.753 49.9092 699.789 49.8956C699.825 49.882 699.863 49.8767 699.901 49.8799L701.552 49.8699ZM697.694 55.5899C697.95 55.5979 698.205 55.5492 698.44 55.4472C698.676 55.3453 698.886 55.1926 699.056 54.9999C699.387 54.5706 699.566 54.0429 699.566 53.4999C699.566 52.9569 699.387 52.4293 699.056 51.9999C698.886 51.8098 698.677 51.6594 698.444 51.5592C698.21 51.459 697.958 51.4115 697.704 51.4199C697.445 51.4117 697.187 51.4602 696.948 51.5621C696.709 51.664 696.496 51.8168 696.322 52.0099C695.955 52.4206 695.763 52.9587 695.785 53.5099C695.767 54.0557 695.955 54.5881 696.312 54.9999C696.486 55.1925 696.7 55.345 696.939 55.4468C697.177 55.5486 697.435 55.5974 697.694 55.5899Z" fill="#080829"/>
<path d="M710.412 56.3201C709.571 57.014 708.517 57.3932 707.429 57.3932C706.341 57.3932 705.287 57.014 704.446 56.3201C703.724 55.5625 703.322 54.554 703.322 53.5051C703.322 52.4561 703.724 51.4477 704.446 50.6901C705.288 49.998 706.342 49.6199 707.429 49.6199C708.517 49.6199 709.57 49.998 710.412 50.6901C711.133 51.446 711.536 52.4528 711.536 53.5001C711.536 54.5474 711.133 55.5542 710.412 56.3101V56.3201ZM706.007 55.0001C706.198 55.1825 706.422 55.325 706.668 55.4194C706.914 55.5138 707.176 55.5582 707.439 55.5501C707.7 55.5569 707.961 55.5118 708.204 55.4175C708.448 55.3231 708.672 55.1813 708.861 55.0001C709.208 54.5897 709.398 54.0687 709.398 53.5301C709.398 52.9915 709.208 52.4705 708.861 52.0601C708.672 51.8789 708.448 51.7371 708.204 51.6427C707.961 51.5484 707.7 51.5033 707.439 51.5101C707.176 51.5019 706.914 51.5464 706.668 51.6408C706.422 51.7352 706.198 51.8777 706.007 52.0601C705.66 52.4705 705.47 52.9915 705.47 53.5301C705.47 54.0687 705.66 54.5897 706.007 55.0001Z" fill="#080829"/>
<path d="M715.126 48.1701C714.863 48.4015 714.525 48.529 714.176 48.529C713.827 48.529 713.489 48.4015 713.226 48.1701C713.107 48.057 713.012 47.9206 712.947 47.7693C712.883 47.618 712.849 47.4549 712.849 47.2901C712.849 47.1253 712.883 46.9623 712.947 46.8109C713.012 46.6596 713.107 46.5232 713.226 46.4101C713.492 46.1845 713.828 46.0608 714.176 46.0608C714.524 46.0608 714.86 46.1845 715.126 46.4101C715.245 46.5232 715.34 46.6596 715.405 46.8109C715.47 46.9623 715.503 47.1253 715.503 47.2901C715.503 47.4549 715.47 47.618 715.405 47.7693C715.34 47.9206 715.245 48.057 715.126 48.1701ZM715.335 57.3901C714.744 57.4193 714.159 57.2504 713.674 56.9101C713.475 56.7571 713.315 56.5583 713.208 56.3304C713.1 56.1025 713.049 55.8521 713.057 55.6001V50.1601C713.053 50.1209 713.057 50.081 713.07 50.0436C713.082 50.0062 713.103 49.9723 713.131 49.9443C713.159 49.9163 713.193 49.8951 713.23 49.8823C713.267 49.8694 713.307 49.8653 713.346 49.8701H715.016C715.205 49.8701 715.295 49.9701 715.295 50.1601V54.8801C715.295 55.2601 715.464 55.4501 715.802 55.4501C715.953 55.4556 716.103 55.4387 716.25 55.4001C716.448 55.4001 716.558 55.4601 716.568 55.6401L716.717 56.8901C716.724 56.9266 716.723 56.9641 716.715 57.0003C716.706 57.0364 716.69 57.0703 716.667 57.0997C716.645 57.1291 716.617 57.1533 716.584 57.1706C716.551 57.1879 716.515 57.198 716.478 57.2001C716.109 57.3224 715.724 57.3865 715.335 57.3901Z" fill="#080829"/>
<path d="M722.862 49.63C723.384 49.6093 723.905 49.6942 724.394 49.8797C724.882 50.0652 725.329 50.3476 725.706 50.71C726.409 51.4689 726.8 52.4677 726.8 53.505C726.8 54.5423 726.409 55.5411 725.706 56.3C725.331 56.6656 724.884 56.9508 724.396 57.1381C723.907 57.3255 723.385 57.4112 722.862 57.39C722.118 57.4067 721.388 57.1784 720.784 56.74V60.35C720.784 60.54 720.685 60.63 720.496 60.63H718.825C718.787 60.6372 718.748 60.6349 718.711 60.6234C718.674 60.6118 718.64 60.5914 718.612 60.5638C718.585 60.5362 718.565 60.5023 718.554 60.4651C718.542 60.4278 718.54 60.3883 718.547 60.35V52.15C718.559 52.0698 718.552 51.988 718.526 51.911C718.501 51.8341 718.458 51.7641 718.4 51.7068C718.344 51.6495 718.274 51.6064 718.198 51.5809C718.121 51.5554 718.04 51.5482 717.96 51.56H717.632C717.413 51.56 717.304 51.48 717.304 51.32V50.14C717.299 50.067 717.319 49.9944 717.36 49.9344C717.402 49.8743 717.463 49.8304 717.532 49.81C717.876 49.6843 718.24 49.6233 718.606 49.63C718.971 49.5975 719.337 49.6753 719.658 49.8535C719.979 50.0317 720.239 50.302 720.406 50.63C720.726 50.3042 721.109 50.0474 721.532 49.8755C721.955 49.7036 722.407 49.62 722.862 49.63ZM721.311 55C721.488 55.1864 721.701 55.3347 721.938 55.436C722.173 55.5373 722.427 55.5895 722.683 55.5895C722.94 55.5895 723.194 55.5373 723.429 55.436C723.665 55.3347 723.879 55.1864 724.056 55C724.43 54.5811 724.626 54.0322 724.603 53.47C724.628 52.9073 724.432 52.3572 724.056 51.94C723.879 51.7537 723.665 51.6054 723.429 51.504C723.194 51.4027 722.94 51.3505 722.683 51.3505C722.427 51.3505 722.173 51.4027 721.938 51.504C721.701 51.6054 721.488 51.7537 721.311 51.94C720.949 52.3646 720.761 52.9113 720.784 53.47C720.764 54.0283 720.952 54.5739 721.311 55Z" fill="#080829"/>
<path d="M731.494 57.3899C730.601 57.4268 729.716 57.2121 728.938 56.7699C728.626 56.5809 728.361 56.3236 728.161 56.0172C727.961 55.7108 727.832 55.3631 727.785 54.9999C727.785 54.7999 727.854 54.6999 728.073 54.6999H729.535C729.605 54.7026 729.672 54.7246 729.73 54.7634C729.788 54.8023 729.834 54.8564 729.863 54.9199C730.072 55.4599 730.619 55.7299 731.494 55.7299C731.799 55.7439 732.103 55.6821 732.379 55.5499C732.474 55.5067 732.556 55.4383 732.616 55.352C732.675 55.2657 732.71 55.1647 732.717 55.0599C732.717 54.7999 732.558 54.6199 732.24 54.4999C731.862 54.3736 731.472 54.2897 731.076 54.2499C730.607 54.1965 730.143 54.113 729.684 53.9999C729.239 53.8985 728.833 53.6651 728.521 53.3299C728.337 53.1021 728.201 52.8386 728.123 52.5559C728.044 52.2732 728.024 51.9772 728.064 51.6865C728.104 51.3957 728.203 51.1163 728.356 50.8658C728.508 50.6152 728.71 50.3988 728.948 50.2299C729.665 49.7708 730.505 49.5471 731.355 49.5899C732.176 49.562 732.99 49.7664 733.702 50.1799C733.988 50.3434 734.236 50.5691 734.424 50.8407C734.614 51.1123 734.741 51.4229 734.795 51.7499C734.795 51.9499 734.706 52.0499 734.527 52.0499H733.055C732.994 52.0536 732.932 52.0384 732.878 52.0063C732.825 51.9742 732.783 51.9266 732.757 51.8699C732.658 51.6331 732.473 51.4433 732.24 51.3399C731.976 51.2013 731.682 51.1324 731.385 51.1399C731.093 51.124 730.802 51.1824 730.539 51.3099C730.447 51.3459 730.366 51.4089 730.31 51.4909C730.253 51.5729 730.222 51.67 730.221 51.7699C730.227 51.9067 730.277 52.0378 730.363 52.144C730.449 52.2501 730.566 52.3258 730.698 52.3599C731.08 52.5046 731.477 52.6053 731.882 52.6599C732.347 52.7215 732.809 52.8082 733.264 52.9199C733.709 53.0214 734.115 53.2547 734.427 53.5899C734.595 53.7746 734.724 53.9907 734.807 54.2259C734.891 54.461 734.928 54.7105 734.915 54.9599C734.924 55.3056 734.842 55.6476 734.68 55.9526C734.518 56.2575 734.28 56.515 733.99 56.6999C733.247 57.1795 732.376 57.4202 731.494 57.3899Z" fill="#080829"/>
<path d="M745.426 56.8901C745.432 56.9256 745.43 56.9619 745.422 56.9968C745.413 57.0317 745.398 57.0646 745.376 57.0935C745.355 57.1224 745.328 57.1467 745.297 57.165C745.267 57.1833 745.233 57.1952 745.197 57.2001C744.834 57.3193 744.455 57.3833 744.073 57.3901C743.695 57.4295 743.314 57.3701 742.965 57.2176C742.616 57.0652 742.313 56.825 742.084 56.5201C741.382 57.1274 740.473 57.439 739.549 57.3901C739.119 57.41 738.69 57.3393 738.29 57.1826C737.889 57.0259 737.525 56.7866 737.222 56.4801C736.92 56.159 736.687 55.78 736.535 55.3659C736.382 54.9518 736.315 54.511 736.337 54.0701V50.1601C736.337 49.9701 736.426 49.8701 736.615 49.8701H738.286C738.475 49.8701 738.564 49.9701 738.564 50.1601V53.7701C738.546 54.2199 738.698 54.6597 738.992 55.0001C739.138 55.156 739.316 55.2787 739.513 55.3598C739.71 55.4408 739.923 55.4785 740.135 55.4701C740.353 55.4797 740.571 55.4457 740.776 55.3702C740.981 55.2947 741.169 55.1791 741.329 55.0301C741.48 54.8731 741.598 54.6864 741.675 54.4818C741.752 54.2771 741.786 54.0587 741.776 53.8401V50.1601C741.776 49.9701 741.866 49.8701 742.055 49.8701H743.745C743.934 49.8701 744.024 49.9701 744.024 50.1601V54.8701C744.024 55.2601 744.193 55.4501 744.521 55.4501C744.675 55.4561 744.829 55.4393 744.978 55.4001C745.016 55.3895 745.055 55.3876 745.094 55.3945C745.132 55.4015 745.168 55.4171 745.2 55.4402C745.232 55.4633 745.258 55.4933 745.276 55.5279C745.294 55.5625 745.304 55.6009 745.306 55.6401L745.426 56.8901Z" fill="#080829"/>
<path d="M761.227 56.8901C761.236 56.9259 761.237 56.9633 761.23 56.9994C761.222 57.0356 761.207 57.0698 761.185 57.0994C761.163 57.129 761.135 57.1534 761.103 57.1708C761.071 57.1882 761.035 57.1982 760.998 57.2001C760.628 57.321 760.243 57.385 759.855 57.3901C759.263 57.4208 758.679 57.2518 758.194 56.9101C757.984 56.7637 757.814 56.5676 757.698 56.3391C757.581 56.1105 757.523 55.8567 757.528 55.6001V53.2501C757.549 52.8017 757.399 52.362 757.11 52.0201C756.971 51.8638 756.798 51.7406 756.606 51.6593C756.413 51.578 756.205 51.5407 755.996 51.5501C755.808 51.543 755.621 51.5788 755.448 51.6551C755.276 51.7313 755.124 51.8458 755.002 51.9901C754.739 52.3252 754.605 52.7439 754.624 53.1701V56.8601C754.624 57.0501 754.534 57.1501 754.346 57.1501H752.665C752.626 57.155 752.586 57.1508 752.55 57.138C752.512 57.1251 752.478 57.1039 752.45 57.0759C752.422 57.048 752.401 57.014 752.389 56.9766C752.376 56.9392 752.372 56.8994 752.377 56.8601V53.2501C752.398 52.8066 752.26 52.37 751.989 52.0201C751.867 51.8731 751.715 51.7548 751.543 51.6736C751.372 51.5923 751.184 51.5502 750.994 51.5501C750.792 51.5419 750.59 51.5768 750.401 51.6526C750.212 51.7285 750.042 51.8435 749.901 51.9901C749.616 52.3145 749.47 52.7382 749.493 53.1701V56.8601C749.498 56.8994 749.494 56.9392 749.481 56.9766C749.468 57.014 749.447 57.048 749.419 57.0759C749.391 57.1039 749.358 57.1251 749.321 57.138C749.283 57.1508 749.243 57.155 749.204 57.1501H747.584C747.395 57.1501 747.305 57.0501 747.305 56.8601V52.1501C747.317 52.0699 747.31 51.9881 747.284 51.9111C747.259 51.8341 747.217 51.7642 747.159 51.7069C747.102 51.6496 747.033 51.6065 746.956 51.581C746.879 51.5555 746.798 51.5483 746.718 51.5601H746.39C746.171 51.5601 746.062 51.4801 746.062 51.3201V50.1401C746.057 50.0671 746.077 49.9945 746.119 49.9344C746.161 49.8744 746.221 49.8305 746.291 49.8101C746.635 49.6844 746.999 49.6233 747.365 49.6301C747.716 49.6 748.069 49.6704 748.382 49.8332C748.695 49.996 748.956 50.2445 749.135 50.5501C749.47 50.2303 749.868 49.9836 750.302 49.8253C750.737 49.667 751.199 49.6006 751.661 49.6301C752.109 49.6081 752.556 49.6926 752.965 49.8768C753.375 50.061 753.735 50.3396 754.017 50.6901C754.347 50.3304 754.751 50.0487 755.202 49.8654C755.652 49.6821 756.137 49.6017 756.623 49.6301C757.057 49.6097 757.491 49.68 757.896 49.8366C758.301 49.9933 758.67 50.2328 758.98 50.5401C759.282 50.8606 759.516 51.2395 759.668 51.6537C759.82 52.068 759.887 52.5091 759.865 52.9501V54.8801C759.865 55.2601 760.034 55.4501 760.352 55.4501C760.506 55.4573 760.66 55.4405 760.809 55.4001C761.015 55.4001 761.124 55.4801 761.137 55.6401L761.227 56.8901Z" fill="#080829"/>
<path d="M644.622 48.57C645.356 45.6047 647.055 42.9714 649.449 41.0895C651.843 39.2076 654.794 38.1853 657.833 38.1853C660.871 38.1853 663.823 39.2076 666.217 41.0895C668.611 42.9714 670.31 45.6047 671.044 48.57H669.85C667.837 48.5402 665.866 49.1452 664.212 50.3C664.117 50.3695 664.017 50.4329 663.914 50.49H663.774C663.671 50.4329 663.572 50.3695 663.476 50.3C661.808 49.1719 659.843 48.5694 657.833 48.5694C655.822 48.5694 653.858 49.1719 652.189 50.3C652.094 50.3695 651.994 50.4329 651.891 50.49H651.752C651.649 50.4329 651.549 50.3695 651.454 50.3C649.8 49.1452 647.828 48.5402 645.815 48.57H644.622ZM667.702 54.84C668.315 54.3603 669.074 54.1093 669.85 54.13H671.451V50.92H669.85C668.483 50.9034 667.147 51.3313 666.042 52.14C665.419 52.6013 664.667 52.8501 663.894 52.8501C663.121 52.8501 662.368 52.6013 661.746 52.14C660.612 51.3464 659.264 50.9209 657.882 50.9209C656.501 50.9209 655.153 51.3464 654.019 52.14C653.397 52.6013 652.644 52.8501 651.871 52.8501C651.098 52.8501 650.346 52.6013 649.723 52.14C648.604 51.3209 647.249 50.8925 645.865 50.92H644.214V54.13H645.815C646.591 54.1093 647.351 54.3603 647.963 54.84C649.095 55.6341 650.442 56.06 651.822 56.06C653.201 56.06 654.548 55.6341 655.68 54.84C656.293 54.3617 657.052 54.111 657.828 54.13C658.604 54.1076 659.364 54.3588 659.976 54.84C661.109 55.6336 662.458 56.0591 663.839 56.0591C665.22 56.0591 666.569 55.6336 667.702 54.84ZM667.702 60.58C668.315 60.1003 669.074 59.8493 669.85 59.87H671.451V56.66H669.85C668.483 56.6434 667.147 57.0713 666.042 57.88C665.419 58.3413 664.667 58.5901 663.894 58.5901C663.121 58.5901 662.368 58.3413 661.746 57.88C660.612 57.0864 659.264 56.6609 657.882 56.6609C656.501 56.6609 655.153 57.0864 654.019 57.88C653.397 58.3413 652.644 58.5901 651.871 58.5901C651.098 58.5901 650.346 58.3413 649.723 57.88C648.604 57.0609 647.249 56.6325 645.865 56.66H644.214V59.87H645.815C646.591 59.8493 647.351 60.1003 647.963 60.58C649.095 61.3741 650.442 61.8 651.822 61.8C653.201 61.8 654.548 61.3741 655.68 60.58C656.293 60.1017 657.052 59.851 657.828 59.87C658.604 59.8476 659.364 60.0988 659.976 60.58C661.109 61.3736 662.458 61.7991 663.839 61.7991C665.22 61.7991 666.569 61.3736 667.702 60.58Z" fill="#080829"/>
</svg>
